<?xml version="1.0" standalone="no"?>
<!DOCTYPE svg PUBLIC "-//W3C//DTD SVG 1.1//EN" "http://www.w3.org/Graphics/SVG/1.1/DTD/svg11.dtd">
<svg xmlns="http://www.w3.org/2000/svg" version="1.1">
  <title>iconsvg</title>
  <g id="layer1"  transform="translate(100 100)">
  <path d="
M 8.49445,-58.7128 L -14.5996,-58.7128 L -27.2791,-80.6743 L -45.732,-80.6743 L -48.0526,-76.6551 L -37.6936,-58.7128
 L -58.4115,-58.7128 L -69.9585,-38.7128 L 20.0414,-38.7128 z
M 58.1466,16.7128 L 83.5055,16.7128 L 92.732,0.73204 L 90.4115,-3.28719 L 69.6936,-3.28719 L 80.0526,-21.2295
 L 68.5055,-41.2295 L 23.5055,36.7128 L 46.5996,36.7128 z
M -55.094,22 L -43.547,42 L -56.2265,63.9615 L -47,79.9423 L -42.359,79.9423 L -32,62
 L -21.641,79.9423 L 1.45299,79.9423 L -43.547,1.99998 z
"  fill="#796CB3" /><path d="
M 55.094,-22 L 43.547,-42 L 56.2265,-63.9615 L 47,-79.9423 L 42.359,-79.9423 L 32,-62
 L 21.641,-79.9423 L -1.45299,-79.9423 L 43.547,-1.99998 z
M -23.5055,-36.7128 L -46.5996,-36.7128 L -58.1466,-16.7128 L -83.5055,-16.7128 L -92.732,-0.73204 L -90.4115,3.28719
 L -69.6936,3.28719 L -80.0526,21.2295 L -68.5055,41.2295 z
M 48.0526,76.6551 L 37.6936,58.7128 L 58.4115,58.7128 L 69.9585,38.7128 L -20.0414,38.7128 L -8.49445,58.7128
 L 14.5996,58.7128 L 27.2791,80.6743 L 45.732,80.6743 z
"  fill="#A0C5E2" /><path d="
M 8.49445,-58.7128 L -14.5996,-58.7128 L -27.2791,-80.6743 L -45.732,-80.6743 L -48.0526,-76.6551 L -37.6936,-58.7128
 L -58.4115,-58.7128 L -69.9585,-38.7128 L 20.0414,-38.7128 z
M 58.1466,16.7128 L 83.5055,16.7128 L 92.732,0.73204 L 90.4115,-3.28719 L 69.6936,-3.28719 L 80.0526,-21.2295
 L 68.5055,-41.2295 L 23.5055,36.7128 L 46.5996,36.7128 z
M -55.094,22 L -43.547,42 L -56.2265,63.9615 L -47,79.9423 L -42.359,79.9423 L -32,62
 L -21.641,79.9423 L 1.45299,79.9423 L -43.547,1.99998 z
"  fill="#796CB3" /><path d="
M 55.094,-22 L 43.547,-42 L 56.2265,-63.9615 L 47,-79.9423 L 42.359,-79.9423 L 32,-62
 L 21.641,-79.9423 L -1.45299,-79.9423 L 43.547,-1.99998 z
M -23.5055,-36.7128 L -46.5996,-36.7128 L -58.1466,-16.7128 L -83.5055,-16.7128 L -92.732,-0.73204 L -90.4115,3.28719
 L -69.6936,3.28719 L -80.0526,21.2295 L -68.5055,41.2295 z
M 48.0526,76.6551 L 37.6936,58.7128 L 58.4115,58.7128 L 69.9585,38.7128 L -20.0414,38.7128 L -8.49445,58.7128
 L 14.5996,58.7128 L 27.2791,80.6743 L 45.732,80.6743 z
"  fill="#A0C5E2" /><path d="
M 8.49445,-58.7128 L -14.5996,-58.7128 L -27.2791,-80.6743 L -45.732,-80.6743 L -48.0526,-76.6551 L -37.6936,-58.7128
 L -58.4115,-58.7128 L -69.9585,-38.7128 L 20.0414,-38.7128 z
M 58.1466,16.7128 L 83.5055,16.7128 L 92.732,0.73204 L 90.4115,-3.28719 L 69.6936,-3.28719 L 80.0526,-21.2295
 L 68.5055,-41.2295 L 23.5055,36.7128 L 46.5996,36.7128 z
M -55.094,22 L -43.547,42 L -56.2265,63.9615 L -47,79.9423 L -42.359,79.9423 L -32,62
 L -21.641,79.9423 L 1.45299,79.9423 L -43.547,1.99998 z
"  fill="#796CB3" /><path d="
M 55.094,-22 L 43.547,-42 L 56.2265,-63.9615 L 47,-79.9423 L 42.359,-79.9423 L 32,-62
 L 21.641,-79.9423 L -1.45299,-79.9423 L 43.547,-1.99998 z
M -23.5055,-36.7128 L -46.5996,-36.7128 L -58.1466,-16.7128 L -83.5055,-16.7128 L -92.732,-0.73204 L -90.4115,3.28719
 L -69.6936,3.28719 L -80.0526,21.2295 L -68.5055,41.2295 z
M 48.0526,76.6551 L 37.6936,58.7128 L 58.4115,58.7128 L 69.9585,38.7128 L -20.0414,38.7128 L -8.49445,58.7128
 L 14.5996,58.7128 L 27.2791,80.6743 L 45.732,80.6743 z
"  fill="#A0C5E2" /><path d="
M 8.49445,-58.7128 L -14.5996,-58.7128 L -27.2791,-80.6743 L -45.732,-80.6743 L -48.0526,-76.6551 L -37.6936,-58.7128
 L -58.4115,-58.7128 L -69.9585,-38.7128 L 20.0414,-38.7128 z
M 58.1466,16.7128 L 83.5055,16.7128 L 92.732,0.73204 L 90.4115,-3.28719 L 69.6936,-3.28719 L 80.0526,-21.2295
 L 68.5055,-41.2295 L 23.5055,36.7128 L 46.5996,36.7128 z
M -55.094,22 L -43.547,42 L -56.2265,63.9615 L -47,79.9423 L -42.359,79.9423 L -32,62
 L -21.641,79.9423 L 1.45299,79.9423 L -43.547,1.99998 z
"  fill="#796CB3" />
  </g>
</svg>